<?xml version="1.0" encoding="UTF-8" standalone="no"?>
<!-- Created with Inkscape (http://www.inkscape.org/) -->

<svg
   version="1.1"
   id="svg48"
   width="500"
   height="500.33301"
   viewBox="0 0 500 500.33301"
   xml:space="preserve"
   xmlns="http://www.w3.org/2000/svg"
   xmlns:svg="http://www.w3.org/2000/svg"><defs
     id="defs52" /><g
     id="g54"><path
       style="fill:none;stroke:#000000;stroke-width:0.848274"
       d="m 41.827126,318.91473 h -15.94848 8.15145 l -0.3544,-73.6984 h -8.15146 14.88523"
       id="path1021-3-8-8-9-0-4" /><path
       style="fill:none;stroke:#000000"
       d="m 173.8632,290.21133 -0.59635,29.8175 H 60.556566 v -74.5438 h 7.1562 v -2.9818 l 106.150434,0.5964 v -2.3854 h -18.48687 l 0.59635,-5.3672 2.98175,-5.3672 4.17446,-3.5781 2.3854,-1.789 4.77081,-1.1927 3.5781,-0.5964 V 164.3813 l -28.02848,0.59635 -3.57811,4.17446 v 10.73431 h -10.13796 v -7.15621 h -24.45038 v 7.75256 h -8.348911 v 56.05696 h 8.348911 v 5.9635 l 66.19493,0.5964 v -1.7891 h -18.48687 l 0.30346,-5.6358 3.27527,-5.1469 3.74317,-3.7431 6.08266,-3.2753 4.67896,-1.4037 h 2.80738 v -1.4037 h 32.28485 l -0.46789,-22.92692 6.55054,1.40369 4.67897,2.33948 2.33948,1.87158 2.80738,4.21107 1.87158,6.0827 v 5.1468 h 25.26641 V 89.691041 h -26.67009 l -5.61476,4.67896 v 10.293719 h -8.89003 v -2.80738 l -25.26641,-0.46789 v 3.74317 h -8.89003 l 0.4679,111.35931 h 31.81695 l -0.46789,-18.71582 7.01844,0.93579 5.61476,3.27527 3.27527,5.14686 2.33948,6.0827 0.4679,5.1468 24.33061,0.4679 h 28.07379 l 0.93579,-7.9542 2.33948,-4.21109 3.27528,-4.21107 3.74317,-2.33948 6.08265,-2.33948 2.80738,-0.4679 v 18.24792 h 30.88116 V 104.66372 h -7.95424 v -3.74317 h -26.67009 v 3.74317 l -9.35793,-0.46789 -0.4679,-10.761619 -3.27527,-3.74317 H 253.93803 V 219.29833 l 25.26641,-0.4679 0.46789,-6.0826 3.74318,-7.48638 5.61475,-5.14686 6.08266,-1.87159 3.27527,-0.93579 v 19.18372 l 33.22064,-0.4679 v 7.0185 l 6.55055,0.9358 7.01845,4.6789 c 4.67896,5.6148 5.61476,12.6332 5.61476,12.6332 l -19.18376,-0.4679 v 1.8716 l 74.86343,0.4679 v -62.69809 h -8.42214 v -7.01845 h -24.79851 v 6.08266 h -9.82582 v -10.76162 l -3.74317,-3.74317 h -28.07379 l 0.4679,57.55127 8.42214,2.3395 9.35792,10.2937 0.9358,6.0826 -19.18376,-0.4679 v 1.8716 2.8074 h 82.34977 v -5.6147 l 29.94537,-0.4679 v 77.2029 h -14.50479 v 3.7431 h -97.79035 l 0.4679,-29.0095 19.18375,0.4679 -1.40369,-5.1469 -1.40369,-4.2111 -3.27527,-3.2753 -2.80738,-2.3394 -5.14686,-2.3395 -6.55055,-0.9358 v -27.6059 27.6059 l 6.55055,0.9358 5.61476,1.8716 4.67896,4.6789 2.33948,4.679 0.9358,6.0827 -18.71586,-0.4679 -0.4679,0.9357 h -3.74317 v 9.8259 l -0.93579,4.6789 -1.87159,4.2111 -1.40368,1.8716 -2.80738,2.8074 -2.80738,1.8716 -5.14686,3.2752 -2.33948,0.4679 h -3.27528 v 1.8716 l -108.08407,-0.4679 v -0.4679 h -1.40369 l -4.21106,-0.9358 -5.14686,-1.8716 -4.21107,-2.8073 -3.27528,-3.7432 -1.87158,-4.2111 -0.93579,-2.8074 -0.4679,-4.211 v -3.2753 -0.9358 h -1.40369 v -7.0184 z"
       id="path13621" /><path
       style="fill:none;stroke:#000000"
       d="m 174.14759,242.93503 c -0.29118,27.0789 -0.29118,27.3701 -0.29118,27.3701 z"
       id="path13625" /><path
       style="fill:none;stroke:#000000;stroke-width:0.848274"
       d="m 472.90754,313.98823 h -15.94848 8.15145 l -0.3544,-73.6984 h -8.15146 14.88523"
       id="path1021-3-8-8-9-0-4-4" /><path
       style="fill:none;stroke:#000000;stroke-width:0.848274"
       d="m 172.70924,142.597 2e-5,15.9485 7e-5,-8.1515 -73.698511,0.3544 7e-5,8.1514 5e-5,-14.8851"
       id="path1021-3-8-8-9-0-4-4-6" /><path
       style="fill:none;stroke:#000000;stroke-width:0.848274"
       d="m 405.08217,140.9548 10e-6,15.94848 v -8.15146 l -73.6984,0.35442 v 8.15145 -14.88524"
       id="path1021-3-8-8-9-0-4-4-0" /><path
       style="fill:none;stroke:#000000;stroke-width:0.866759"
       d="m 253.15896,62.949771 2e-5,15.94848 v -8.15146 l -76.94545,0.35442 v 8.15145 -14.88524"
       id="path1021-3-8-8-9-0-4-4-9" /><path
       style="fill:none;stroke:#000000;stroke-width:0.862175"
       d="m 329.53113,62.914151 10e-6,15.94848 v -8.15146 l -76.13368,0.35441 v 8.15146 -14.88525"
       id="path1021-3-8-8-9-0-4-4-4" /><path
       style="fill:none;stroke:#000000;stroke-width:1.04502"
       d="m 172.94369,333.85513 3e-5,15.9481 10e-5,-8.1513 -111.851854,0.3544 1e-4,8.1512 8e-5,-14.8847"
       id="path1021-3-8-8-9-0-4-4-6-9" /><path
       style="fill:none;stroke:#000000;stroke-width:1.04502"
       d="m 444.31908,334.67623 3e-5,15.9481 10e-5,-8.1513 -111.85185,0.3544 1e-4,8.1512 8e-5,-14.8847"
       id="path1021-3-8-8-9-0-4-4-6-9-6" /><text
       xml:space="preserve"
       style="fill:none;stroke:#000000"
       x="105.39091"
       y="358.79068"
       id="text1206-7-3"><tspan
         id="tspan1204-5-1"
         x="105.39091"
         y="358.79068">15'</tspan></text><text
       xml:space="preserve"
       style="fill:none;stroke:#000000"
       x="378.81906"
       y="357.14847"
       id="text1206-7-5"><tspan
         id="tspan1204-5-8"
         x="378.81906"
         y="357.14847">15'</tspan></text><text
       xml:space="preserve"
       style="fill:none;stroke:#000000"
       x="-289.0235"
       y="23.546854"
       id="text1206-7-0"
       transform="rotate(-90)"><tspan
         id="tspan1204-5-9"
         x="-289.0235"
         y="23.546854">10'</tspan></text><text
       xml:space="preserve"
       style="fill:none;stroke:#000000"
       x="267.36032"
       y="-478.7153"
       id="text1206-7-2"
       transform="rotate(90)"><tspan
         id="tspan1204-5-4"
         x="267.36032"
         y="-478.7153">10'</tspan></text><text
       xml:space="preserve"
       style="fill:none;stroke:#000000"
       x="125.09745"
       y="140.37662"
       id="text1206-7-33"><tspan
         id="tspan1204-5-90"
         x="125.09745"
         y="140.37662">9'</tspan></text><text
       xml:space="preserve"
       style="fill:none;stroke:#000000"
       x="359.11252"
       y="138.73441"
       id="text1206-7-55"><tspan
         id="tspan1204-5-44"
         x="359.11252"
         y="138.73441">9'</tspan></text><text
       xml:space="preserve"
       style="fill:none;stroke:#000000"
       x="208.02911"
       y="59.087124"
       id="text1206-7-38"><tspan
         id="tspan1204-5-2"
         x="208.02911"
         y="59.087124">10'</tspan></text><text
       xml:space="preserve"
       style="fill:none;stroke:#000000"
       x="281.92862"
       y="59.087124"
       id="text1206-7-26"><tspan
         id="tspan1204-5-40"
         x="281.92862"
         y="59.087124">10'</tspan></text><path
       style="fill:none;stroke:#000000;stroke-width:0.862844"
       d="M 91.163363,241.60425 H 75.221431 83.369534 L 83.01528,165.32101 h -8.148113 14.879118"
       id="path1021-3-8-8-9-0-4-45" /><text
       xml:space="preserve"
       style="font-size:12.2061px;fill:none;stroke:#000000;stroke-width:1.01718"
       x="-210.43279"
       y="74.173058"
       id="text1206-7-0-2"
       transform="matrix(0,-1.0175944,0.98270982,0,0,0)"><tspan
         id="tspan1204-5-9-9"
         x="-210.43279"
         y="74.173058"
         style="stroke-width:1.01718">9'-6''</tspan></text><path
       style="fill:none;stroke:#000000;stroke-width:0.848274"
       d="m 417.93074,166.70914 15.94847,-3e-5 -8.15143,2e-5 0.35438,73.69841 h 8.15148 l -14.88526,10e-6"
       id="path1021-3-8-8-9-0-4-0" /><text
       xml:space="preserve"
       style="fill:none;stroke:#000000"
       x="187.92395"
       y="-435.34338"
       id="text1206-7-0-9"
       transform="rotate(90)"><tspan
         id="tspan1204-5-9-8"
         x="187.92395"
         y="-435.34338">9'-6''</tspan></text></g></svg>
