<?xml version="1.0" encoding="UTF-8" standalone="no"?>
<!-- Created with Inkscape (http://www.inkscape.org/) -->

<svg
   version="1.1"
   id="svg48"
   width="500"
   height="500.33301"
   viewBox="0 0 500 500.33301"
   xml:space="preserve"
   xmlns="http://www.w3.org/2000/svg"
   xmlns:svg="http://www.w3.org/2000/svg"><defs
     id="defs52" /><g
     id="g54"><path
       style="fill:none;stroke:#000000"
       d="m 253.92509,285.41602 -0.11463,63.98629 -3.92847,0.917 -2.66761,1.03943 -2.54778,1.50314 -3.11829,2.652 -2.19869,2.19868 -1.15406,2.1935 -1.38591,3.23812 -0.57573,3.91807 17.92302,-0.22925 0.11463,15.94316 h 20.78864 v 43.30968 h 3.46478 v -18.3633 l 3.11829,0.34647 3.81125,1.03944 1.73239,1.38591 2.42534,1.38591 1.38591,2.07886 2.42534,3.81125 1.38591,3.81125 1.38591,5.19716 h -0.34647 19.05625 V 366.8382 l 17.74055,0.11159 -0.69295,-4.85068 -1.6091,-3.22989 -1.16272,-1.84397 -1.97897,-1.85569 -2.42534,-1.85567 -2.56034,-1.6208 -2.11397,-0.79285 -2.23726,-0.34647 -2.50183,-0.33478 -0.11159,-0.088 v -64.71492 z"
       id="path2048" /><path
       style="fill:none;stroke:#000000"
       d="m 253.81484,349.33437 0.25197,-63.99886 h -61.73119 v 98.014 h 60.97529 v -16.1257 h -16.88158 l 0.50392,-4.28338 1.25982,-3.02357 2.26768,-3.27553 3.5275,-3.27554 4.03142,-2.26767 2.7716,-1.00786 z"
       id="path7888" /><path
       style="fill:none;stroke:#000000;stroke-width:0.770242"
       d="m 253.24295,255.44563 v 15.94821 -8.15131 l -60.76483,0.3544 v 8.15131 -14.88499"
       id="path1021-3-8" /><path
       style="fill:none;stroke:#000000"
       d="m 315.35581,349.3109 -0.25196,-63.99886 61.73118,2e-5 -2e-5,98.01403 -60.97526,-1e-4 v -16.1256 l 16.88157,-1e-4 -0.50394,-4.2834 -1.25979,-3.02354 -2.2677,-3.27546 -3.52753,-3.27551 -4.03138,-2.2677 -2.77159,-1.00791 z"
       id="path7888-1" /><path
       style="fill:none;stroke:#000000;stroke-width:0.778296"
       d="m 315.25859,255.29593 v 15.94821 -8.15131 l -62.04217,0.3544 v 8.15131 -14.88499"
       id="path1021-3-8-4" /><path
       style="fill:none;stroke:#000000;stroke-width:0.770242"
       d="m 376.06301,254.97254 v 15.94821 -8.15131 l -60.76482,0.3544 v 8.15131 -14.88499"
       id="path1021-3-8-0" /><path
       style="fill:none;stroke:#000000;stroke-width:0.782291"
       d="m 377.66778,387.88362 v 15.94821 -8.15131 l -62.68084,0.3544 v 8.15131 -14.88499"
       id="path1021-3-8-5" /><path
       style="fill:none;stroke:#000000;stroke-width:0.978662"
       d="m 177.3943,383.53912 -15.94827,10e-6 8.15135,-10e-6 -0.35441,-98.09849 -8.15134,2e-5 14.88504,10e-6"
       id="path1021-3-8-09" /><path
       style="fill:none;stroke:#000000;stroke-width:0.978662"
       d="m 404.27992,383.64108 -15.94827,1e-5 8.15134,-1e-5 -0.3544,-98.09849 -8.15134,2e-5 14.88503,10e-6"
       id="path1021-3-8-09-4" /><path
       style="fill:none;stroke:#000000;stroke-width:0.770242"
       d="m 253.17685,387.56023 v 15.94821 -8.15131 l -60.76483,0.3544 v 8.15131 -14.88499"
       id="path1021-3-8-8" /><text
       xml:space="preserve"
       style="fill:none;stroke:#000000"
       x="205.00827"
       y="256.33276"
       id="text10224"><tspan
         id="tspan10222"
         x="205.00827"
         y="256.33276">10'-3''</tspan></text><text
       xml:space="preserve"
       style="fill:none;stroke:#000000"
       x="265.54831"
       y="256.91992"
       id="text10224-2"><tspan
         id="tspan10222-5"
         x="265.54831"
         y="256.91992">10'-3''</tspan></text><text
       xml:space="preserve"
       style="fill:none;stroke:#000000"
       x="325.69788"
       y="256.91992"
       id="text10224-1"><tspan
         id="tspan10222-3"
         x="325.69788"
         y="256.91992">10'-3''</tspan></text><text
       xml:space="preserve"
       style="fill:none;stroke:#000000"
       x="201.84157"
       y="411.17441"
       id="text10224-9"><tspan
         id="tspan10222-7"
         x="201.84157"
         y="411.17441">10'-3''</tspan></text><text
       xml:space="preserve"
       style="fill:none;stroke:#000000"
       x="324.72772"
       y="412.46799"
       id="text10224-3"><tspan
         id="tspan10222-75"
         x="324.72772"
         y="412.46799">10'-3''</tspan></text><text
       xml:space="preserve"
       style="fill:none;stroke:#000000"
       x="-340.93256"
       y="162.45316"
       id="text10224-0"
       transform="rotate(-90)"><tspan
         id="tspan10222-2"
         x="-340.93256"
         y="162.45316">17'</tspan></text><text
       xml:space="preserve"
       style="fill:none;stroke:#000000"
       x="323.70007"
       y="-404.63074"
       id="text10224-16"
       transform="rotate(90)"><tspan
         id="tspan10222-1"
         x="323.70007"
         y="-404.63074">17'</tspan></text></g></svg>
