<?xml version="1.0" encoding="UTF-8" standalone="no"?>
<!-- Created with Inkscape (http://www.inkscape.org/) -->

<svg
   version="1.1"
   id="svg48"
   width="500"
   height="500.33301"
   viewBox="0 0 500 500.33301"
   xml:space="preserve"
   xmlns="http://www.w3.org/2000/svg"
   xmlns:svg="http://www.w3.org/2000/svg"><defs
     id="defs52" /><g
     id="g54"><path
       style="fill:none;stroke:#000000"
       d="m 253.92509,285.41602 -0.11463,63.98629 -3.92847,0.917 -2.66761,1.03943 -2.54778,1.50314 -3.11829,2.652 -2.19869,2.19868 -1.15406,2.1935 -1.38591,3.23812 -0.57573,3.91807 17.92302,-0.22925 -0.22705,19.36023 h 19.3745 l 0.0228,40.53355 c 11.64748,0.11612 17.00931,0.10953 28.24637,0.0345 l 13.57129,-0.0564 -0.0886,-43.29026 -0.15115,-16.57639 17.74055,0.11159 -0.69295,-4.85068 -1.6091,-3.22989 -1.16272,-1.84397 -1.97897,-1.85569 -2.42534,-1.85567 -2.56034,-1.6208 -2.11397,-0.79285 -2.23726,-0.34647 -2.50183,-0.33478 -0.11159,-0.088 V 285.4161 Z"
       id="path2048" /><path
       style="fill:none;stroke:#000000"
       d="m 253.81484,349.33437 0.25197,-63.99886 h -61.73119 v 101.43107 l 60.97529,-0.51256 v -2.00497 -17.02524 h -16.88158 l 0.50392,-4.28338 1.25982,-3.02357 2.26768,-3.27553 3.5275,-3.27554 4.03142,-2.26767 2.7716,-1.00786 z"
       id="path7888" /><path
       style="fill:none;stroke:#000000;stroke-width:0.770242"
       d="m 253.24295,255.44563 v 15.94821 -8.15131 l -60.76483,0.3544 v 8.15131 -14.88499"
       id="path1021-3-8" /><path
       style="fill:none;stroke:#000000"
       d="m 315.35581,349.3109 -0.25196,-63.99886 61.73118,2e-5 0.34169,100.91854 -61.14612,-10e-5 -0.17085,-19.03011 16.88157,-1e-4 -0.50394,-4.2834 -1.25979,-3.02354 -2.2677,-3.27546 -3.52753,-3.27551 -4.03138,-2.2677 -2.77159,-1.00791 z"
       id="path7888-1" /><path
       style="fill:none;stroke:#000000;stroke-width:0.778296"
       d="m 315.25859,255.29593 v 15.94821 -8.15131 l -62.04217,0.3544 v 8.15131 -14.88499"
       id="path1021-3-8-4" /><path
       style="fill:none;stroke:#000000;stroke-width:0.770242"
       d="m 376.06301,254.97254 v 15.94821 -8.15131 l -60.76482,0.3544 v 8.15131 -14.88499"
       id="path1021-3-8-0" /><path
       style="fill:none;stroke:#000000;stroke-width:0.782291"
       d="m 377.95743,393.96626 v 15.94821 -8.15131 l -62.68084,0.3544 v 8.15131 -14.88499"
       id="path1021-3-8-5" /><path
       style="fill:none;stroke:#000000;stroke-width:0.978662"
       d="m 177.3943,383.53912 -15.94827,10e-6 8.15135,-10e-6 -0.35441,-98.09849 -8.15134,2e-5 14.88504,10e-6"
       id="path1021-3-8-09" /><path
       style="fill:none;stroke:#000000;stroke-width:0.978662"
       d="m 404.27992,383.64108 -15.94827,1e-5 8.15134,-1e-5 -0.3544,-98.09849 -8.15134,2e-5 14.88503,10e-6"
       id="path1021-3-8-09-4" /><path
       style="fill:none;stroke:#000000;stroke-width:0.770242"
       d="m 253.17685,393.64287 v 15.94821 -8.15131 l -60.76483,0.3544 v 8.15131 -14.88499"
       id="path1021-3-8-8" /><text
       xml:space="preserve"
       style="fill:none;stroke:#000000"
       x="205.00827"
       y="256.33276"
       id="text10224"><tspan
         id="tspan10222"
         x="205.00827"
         y="256.33276">10'-3''</tspan></text><text
       xml:space="preserve"
       style="fill:none;stroke:#000000"
       x="265.54831"
       y="256.91992"
       id="text10224-2"><tspan
         id="tspan10222-5"
         x="265.54831"
         y="256.91992">10'-3''</tspan></text><text
       xml:space="preserve"
       style="fill:none;stroke:#000000"
       x="325.69788"
       y="256.91992"
       id="text10224-1"><tspan
         id="tspan10222-3"
         x="325.69788"
         y="256.91992">10'-3''</tspan></text><text
       xml:space="preserve"
       style="fill:none;stroke:#000000"
       x="201.84157"
       y="420.15353"
       id="text10224-9"><tspan
         id="tspan10222-7"
         x="201.84157"
         y="420.15353">10'-3''</tspan></text><text
       xml:space="preserve"
       style="fill:none;stroke:#000000"
       x="326.17596"
       y="418.26099"
       id="text10224-3"><tspan
         id="tspan10222-75"
         x="326.17596"
         y="418.26099">10'-3''</tspan></text><text
       xml:space="preserve"
       style="fill:none;stroke:#000000"
       x="-340.93256"
       y="162.45316"
       id="text10224-0"
       transform="rotate(-90)"><tspan
         id="tspan10222-2"
         x="-340.93256"
         y="162.45316">18'</tspan></text><text
       xml:space="preserve"
       style="fill:none;stroke:#000000"
       x="323.70007"
       y="-404.63074"
       id="text10224-16"
       transform="rotate(90)"><tspan
         id="tspan10222-1"
         x="323.70007"
         y="-404.63074">18'</tspan></text></g></svg>
