<?xml version="1.0" encoding="UTF-8" standalone="no"?>
<!-- Created with Inkscape (http://www.inkscape.org/) -->

<svg
   version="1.1"
   id="svg48"
   width="500"
   height="500.33301"
   viewBox="0 0 500 500.33301"
   xml:space="preserve"
   xmlns="http://www.w3.org/2000/svg"
   xmlns:svg="http://www.w3.org/2000/svg"><defs
     id="defs52" /><g
     id="g54"><path
       style="fill:none;stroke:#000000;stroke-width:0.997253"
       d="m 253.81621,348.97898 0.25198,-63.64484 h -61.73395 l -0.26564,119.46501 61.24365,-0.24407 v -20.85456 -16.93106 h -16.88233 l 0.50394,-4.25969 1.25988,-3.00684 2.26778,-3.25741 3.52766,-3.25742 4.0316,-2.25513 2.77172,-1.00228 z"
       id="path7888" /><path
       style="fill:none;stroke:#000000;stroke-width:0.770242"
       d="m 253.24295,255.44563 v 15.94821 -8.15131 l -60.76483,0.3544 v 8.15131 -14.88499"
       id="path1021-3-8" /><path
       style="fill:none;stroke:#000000"
       d="m 315.35581,349.3109 -0.25196,-63.99886 61.73118,2e-5 0.87298,118.71664 -61.67741,-1e-4 -0.17085,-36.82821 16.88157,-1e-4 -0.50394,-4.2834 -1.25979,-3.02354 -2.2677,-3.27546 -3.52753,-3.27551 -4.03138,-2.2677 -2.77159,-1.00791 z"
       id="path7888-1" /><path
       style="fill:none;stroke:#000000;stroke-width:0.778296"
       d="m 315.25859,255.29593 v 15.94821 -8.15131 l -62.04217,0.3544 v 8.15131 -14.88499"
       id="path1021-3-8-4" /><path
       style="fill:none;stroke:#000000;stroke-width:0.770242"
       d="m 376.06301,254.97254 v 15.94821 -8.15131 l -60.76482,0.3544 v 8.15131 -14.88499"
       id="path1021-3-8-0" /><path
       style="fill:none;stroke:#000000;stroke-width:0.782291"
       d="m 377.95743,416.81159 v 15.94821 -8.15131 l -62.68084,0.3544 v 8.15131 -14.88499"
       id="path1021-3-8-5" /><path
       style="fill:none;stroke:#000000;stroke-width:1.07569"
       d="m 177.39424,404.05876 -15.94815,10e-6 8.15129,-10e-6 -0.35441,-118.51635 -8.15128,3e-5 14.88493,10e-6"
       id="path1021-3-8-09" /><path
       style="fill:none;stroke:#000000;stroke-width:1.07566"
       d="m 404.27986,404.15231 -15.94815,10e-6 8.15128,-10e-6 -0.3544,-118.50798 -8.15128,2e-5 14.88492,2e-5"
       id="path1021-3-8-09-4" /><path
       style="fill:none;stroke:#000000;stroke-width:0.770242"
       d="m 252.64556,416.4882 v 15.94821 -8.15131 l -60.76483,0.3544 v 8.15131 -14.88499"
       id="path1021-3-8-8" /><text
       xml:space="preserve"
       style="fill:none;stroke:#000000"
       x="205.00827"
       y="256.33276"
       id="text10224"><tspan
         id="tspan10222"
         x="205.00827"
         y="256.33276">10'-3''</tspan></text><text
       xml:space="preserve"
       style="fill:none;stroke:#000000"
       x="265.54831"
       y="256.91992"
       id="text10224-2"><tspan
         id="tspan10222-5"
         x="265.54831"
         y="256.91992">10'-3''</tspan></text><text
       xml:space="preserve"
       style="fill:none;stroke:#000000"
       x="325.69788"
       y="256.91992"
       id="text10224-1"><tspan
         id="tspan10222-3"
         x="325.69788"
         y="256.91992">10'-3''</tspan></text><text
       xml:space="preserve"
       style="fill:none;stroke:#000000"
       x="202.6385"
       y="444.32709"
       id="text10224-9"><tspan
         id="tspan10222-7"
         x="202.6385"
         y="444.32709">10'-3''</tspan></text><text
       xml:space="preserve"
       style="fill:none;stroke:#000000"
       x="325.91031"
       y="445.09097"
       id="text10224-3"><tspan
         id="tspan10222-75"
         x="325.91031"
         y="445.09097">10'-3''</tspan></text><text
       xml:space="preserve"
       style="fill:none;stroke:#000000"
       x="-340.93256"
       y="162.45316"
       id="text10224-0"
       transform="rotate(-90)"><tspan
         id="tspan10222-2"
         x="-340.93256"
         y="162.45316">21'</tspan></text><text
       xml:space="preserve"
       style="fill:none;stroke:#000000"
       x="323.70007"
       y="-404.63074"
       id="text10224-16"
       transform="rotate(90)"><tspan
         id="tspan10222-1"
         x="323.70007"
         y="-404.63074">21'</tspan></text><path
       style="fill:none;stroke:#000000"
       d="m 273.58264,415.14633 c 2.45489,0.20457 4.90978,1.22744 4.90978,1.22744 l 1.43201,1.02287 1.02287,1.02287 1.22745,1.43202 1.02287,1.63659 0.40915,0.8183 0.40914,1.02287 0.11924,1.35854 -0.075,2.02125 c 4.10958,0.1096 11.89484,0.0897 17.51337,0.0522 l 6.78565,-0.0282 6.78564,-0.0282 -0.0823,-22.39413 -0.006,-20.89613 -0.15115,-16.57639 17.74055,0.11159 -0.69295,-4.85068 -1.6091,-3.22989 -1.16272,-1.84397 -1.97897,-1.85569 -2.42534,-1.85567 -2.56034,-1.6208 -2.11397,-0.79285 -2.23726,-0.34647 -2.50183,-0.33478 -0.11159,-0.088 V 285.4161 l -61.32679,-8e-5 -0.11463,63.98629 -3.92847,0.917 -2.66761,1.03943 -2.54778,1.50314 -3.11829,2.652 -2.19869,2.19868 -1.15406,2.1935 -1.38591,3.23812 -0.57573,3.91807 17.92302,-0.22925 -0.22705,37.15833 h 19.3745 l 0.01,10.0162 0.0128,12.71925"
       id="path12843" /></g></svg>
