<?xml version="1.0" encoding="UTF-8" standalone="no"?>
<!-- Created with Inkscape (http://www.inkscape.org/) -->

<svg
   version="1.1"
   id="svg48"
   width="500"
   height="500.33301"
   viewBox="0 0 500 500.33301"
   xml:space="preserve"
   xmlns="http://www.w3.org/2000/svg"
   xmlns:svg="http://www.w3.org/2000/svg"><defs
     id="defs52" /><g
     id="g54"><path
       style="fill:none;stroke:#000000;stroke-width:1.60678"
       d="m 268.45961,266.35316 v 19.13196 l 6.14411,-1.12549 4.53649,-1.80568 2.54484,-1.57048 2.30405,-2.5432 1.69223,-2.55606 0.82662,-4.27917 0.22782,-2.25082 0.15623,-2.25067 v -1.1255 h 6.52812 v 12.75459 h 1.92003 v -12.75459 h 24.19246 v 4.12655 h 4.9921 l -0.384,77.65285 h -4.6081 v 1.87572 h -80.64154 v -1.87572 h -4.22408 V 270.1046 h 4.99209 v -3.75144 h 19.58439 v 12.75459 h 1.92003 v -12.75459 z"
       id="path14139-2" /><path
       style="fill:none;stroke:#000000;stroke-width:1.18522"
       d="m 324.79743,361.21462 2e-5,25.3286 8e-5,-12.94579 -90.59199,0.56282 9e-5,12.94564 6e-5,-23.63965"
       id="path1021-3-8-8-9-0-4-4-6-9-3-8" /><path
       style="fill:none;stroke:#000000;stroke-width:1.15988"
       d="m 224.14347,350.24189 h -25.92777 13.25219 l -0.57618,-84.75456 -13.252,1.6e-4 24.19902,-1.6e-4"
       id="path1021-3-8-8-9-0-4-4-6-9-3-7-8" /><text
       xml:space="preserve"
       style="font-size:12.3841px;fill:none;stroke:#000000;stroke-width:1.03201"
       x="261.38104"
       y="405.17407"
       id="text14193-0"
       transform="scale(1.0356017,0.96562225)"><tspan
         id="tspan14191-7"
         x="261.38104"
         y="405.17407"
         style="stroke-width:1.03201">14'</tspan></text><text
       xml:space="preserve"
       style="font-size:13.2514px;fill:none;stroke:#000000;stroke-width:1.10428"
       x="-336.75552"
       y="190.09331"
       id="text14197-7"
       transform="matrix(0,-0.96579378,1.0354177,0,0,0)"><tspan
         id="tspan14195-9"
         x="-336.75552"
         y="190.09331"
         style="stroke-width:1.10428">13'-4''</tspan></text></g></svg>
