<svg xmlns="http://www.w3.org/2000/svg" viewBox="0 0 360.29 428.7"><defs><style>.cls-1,.cls-4{fill:none;stroke:#000;stroke-miterlimit:10;}.cls-1{stroke-width:4px;}.cls-2{font-size:40.71px;font-family:MyriadPro-Regular, Myriad Pro;}.cls-3{letter-spacing:-0.09em;}.cls-4{stroke-width:3px;}</style></defs><g id="Layer_2" data-name="Layer 2"><g id="Layer_1-2" data-name="Layer 1"><path class="cls-1" d="M272,4.46v351H2V4.46H29v72a96.42,96.42,0,0,0,54-27,96.19,96.19,0,0,0,25.25-45Z"/><path class="cls-1" d="M29,4.46v72a96.42,96.42,0,0,0,54-27,96.19,96.19,0,0,0,25.25-45"/><text class="cls-2" transform="translate(326.21 148.33) rotate(90) scale(0.96 1)">14’6<tspan class="cls-3" x="71.08" y="0">”</tspan></text><line x1="307.71" y1="355.46" x2="307.71"/><line class="cls-4" x1="307.71" y1="353.96" x2="307.71" y2="1.5"/><rect x="297.96" y="352.46" width="19.5" height="3"/><rect x="297.96" width="19.5" height="3"/><text class="cls-2" transform="translate(105.2 400.45) scale(0.96 1)">11<tspan class="cls-3" x="41.77" y="0">’</tspan></text><line x1="272" y1="418.95" x2="2" y2="418.95"/><line class="cls-4" x1="270.5" y1="418.95" x2="3.5" y2="418.95"/><rect x="269" y="409.2" width="3" height="19.5"/><rect x="2" y="409.2" width="3" height="19.5"/></g></g></svg>