<svg xmlns="http://www.w3.org/2000/svg" viewBox="0 0 398 527"><defs><style>.cls-1{fill:none;stroke:#000;stroke-miterlimit:10;stroke-width:4px;}.cls-2{font-size:51.3px;}.cls-2,.cls-4{font-family:MyriadPro-Regular, Myriad Pro;}.cls-3{letter-spacing:-0.09em;}.cls-4{font-size:47.83px;}.cls-5{letter-spacing:-0.09em;}</style></defs><g id="Layer_2" data-name="Layer 2"><g id="Layer_1-2" data-name="Layer 1"><path class="cls-1" d="M308,92V2H191V65c-3.89.09-26.73.27-45-18S127.91,5.89,128,2H2V92"/><path class="cls-1" d="M254,2V20H191a93.37,93.37,0,0,0,27,36,93.15,93.15,0,0,0,36,18V92h54V425H281v18H47V416H2V92H65V74c1.3.16,28.79,3.16,45-18,11.66-15.22,9.51-32.52,9-36H56V2"/><line class="cls-1" x1="335" y1="441" x2="335" y2="4"/><rect x="322" y="439" width="26" height="4"/><rect x="322" y="2" width="26" height="4"/><text class="cls-2" transform="matrix(0, 0.85, -1, 0, 355.06, 173.91)">19’3<tspan class="cls-3" x="89.57" y="0">”</tspan></text><line class="cls-1" x1="315" y1="461" x2="4" y2="461"/><rect x="313" y="448" width="4" height="26"/><rect x="2" y="448" width="4" height="26"/><text class="cls-4" transform="translate(145.91 515.04) scale(0.91 1)">15<tspan class="cls-5" x="49.07" y="0">’</tspan></text></g></g></svg>