<?xml version="1.0" encoding="UTF-8" standalone="no"?>
<!-- Created with Inkscape (http://www.inkscape.org/) -->

<svg
   version="1.1"
   id="svg48"
   width="112"
   height="149.33333"
   viewBox="0 0 112 149.33333"
   xmlns="http://www.w3.org/2000/svg"
   xmlns:svg="http://www.w3.org/2000/svg">
  <defs
     id="defs52" />
  <g
     id="g54">
    <path
       style="fill:none;stroke:#000000"
       d="m 36.149275,2.8352349 v 4.25286 l 2.480832,6.0248801 2.480833,4.25286 3.189642,2.48083 5.31607,2.12643 4.60726,0.3544 L 53.869507,2.8352349 H 79.386642 V 29.061185 l -24.453921,-0.35441 v -11.34094 11.34094 l 24.808326,0.35441 v 64.501653 l -34.377251,-0.35441 v 9.923332 l 34.731656,0.35441 -0.354405,-9.923332 0.354405,9.568922 H 10.277733 l 0.35441,-9.568922 34.377248,-0.35441 v 9.923332 -9.923332 H 10.277733 l 0.35441,-64.501653 H 35.79487 v -11.34094 11.34094 l -25.517137,-0.3544 V 2.4808349 Z"
       id="path1017" />
    <path
       style="fill:none;stroke:#000000;stroke-width:0.993123"
       d="m 85.765928,2.8283849 h 15.948212 -8.151312 l 0.3544,101.0190351 h 8.151312 -14.884992"
       id="path1021" />
    <path
       style="fill:none;stroke:#000000;stroke-width:0.823117"
       d="m 79.766057,106.93086 3e-6,15.94821 2e-6,-8.15131 -69.393859,0.3544 v 8.15131 -14.88499"
       id="path1021-3" />
    <text
       xml:space="preserve"
       style="fill:none;stroke:#000000"
       x="26.225943"
       y="129.00328"
       id="text1206"><tspan
         id="tspan1204"
         x="26.225943"
         y="129.00328">11'-8''</tspan></text>
    <text
       xml:space="preserve"
       style="fill:none;stroke:#000000"
       x="34.681511"
       y="-99.986084"
       id="text1210"
       transform="rotate(90)"><tspan
         id="tspan1208"
         x="34.681511"
         y="-99.986084">18'-6''</tspan></text>
  </g>
</svg>
