<svg xmlns="http://www.w3.org/2000/svg" viewBox="0 0 328 392"><defs><style>.cls-1{fill:none;stroke:#000;stroke-miterlimit:10;stroke-width:4px;}.cls-2{font-size:47.83px;font-family:MyriadPro-Regular, Myriad Pro;}.cls-3{letter-spacing:-0.09em;}</style></defs><g id="Layer_2" data-name="Layer 2"><g id="Layer_1-2" data-name="Layer 1"><polygon class="cls-1" points="130 308 301 308 301 290 319 290 319 20 301 20 301 2 238 2 238 20 157 20 157 2 112 2 112 29 94 29 94 308 130 308"/><line class="cls-1" x1="94" y1="245" x2="166" y2="245"/><line class="cls-1" x1="319" y1="245" x2="238" y2="245"/><line class="cls-1" x1="326" y1="335" x2="96" y2="335"/><rect x="324" y="322" width="4" height="26"/><rect x="94" y="322" width="4" height="26"/><text class="cls-2" transform="translate(174.91 380.04) scale(0.91 1)">12’2<tspan class="cls-3" x="83.51" y="0">”</tspan></text><line class="cls-1" x1="58" y1="306" x2="58" y2="4"/><rect x="45" y="304" width="26" height="4"/><rect x="45" y="2" width="26" height="4"/><text class="cls-2" transform="translate(40.04 172.67) rotate(-90) scale(0.91 1)">16<tspan class="cls-3" x="49.07" y="0">’</tspan></text></g></g></svg>