<svg xmlns="http://www.w3.org/2000/svg" viewBox="0 0 443.46 435.81"><defs><style>.cls-1,.cls-2{fill:none;stroke:#000;stroke-miterlimit:10;}.cls-1{stroke-width:4px;}.cls-2{stroke-width:3px;}.cls-3{font-size:43.6px;font-family:MyriadPro-Regular, Myriad Pro;}.cls-4{letter-spacing:-0.09em;}</style></defs><g id="Layer_2" data-name="Layer 2"><g id="Layer_1-2" data-name="Layer 1"><polyline class="cls-1" points="441.46 182 441.46 242 231.46 242 231.46 362 81.46 362 81.46 122 261.46 122 261.46 2 441.46 2 441.46 122"/><path class="cls-1" d="M441.46,182h-60c.6-5.26,3.82-28.29,24-45a67.92,67.92,0,0,1,36-15"/><line x1="53.96" y1="119" x2="53.96" y2="362"/><line class="cls-2" x1="53.96" y1="120.5" x2="53.96" y2="360.5"/><rect x="44.21" y="119" width="19.5" height="3"/><rect x="44.21" y="359" width="19.5" height="3"/><text class="cls-3" transform="translate(36.49 271.81) rotate(-90)">12’2<tspan class="cls-4" x="76.12" y="0">”</tspan></text><text class="cls-3" transform="translate(126.9 424.91)">8’2<tspan class="cls-4" x="53.76" y="0">”</tspan></text><line x1="81.46" y1="379.5" x2="234.46" y2="379.5"/><line class="cls-2" x1="82.96" y1="379.5" x2="232.96" y2="379.5"/><rect x="81.46" y="369.75" width="3" height="19.5"/><rect x="231.46" y="369.75" width="3" height="19.5"/><line x1="234.46" y1="262.5" x2="441.46" y2="262.5"/><line class="cls-2" x1="235.96" y1="262.5" x2="439.96" y2="262.5"/><rect x="234.46" y="252.75" width="3" height="19.5"/><rect x="438.46" y="252.75" width="3" height="19.5"/><text class="cls-3" transform="translate(315.1 299.39)">8’4<tspan class="cls-4" x="53.76" y="0">”</tspan></text></g></g></svg>