<svg xmlns="http://www.w3.org/2000/svg" viewBox="0 0 453.16 408.47"><defs><style>.cls-1,.cls-4{fill:none;stroke:#000;stroke-miterlimit:10;}.cls-1{stroke-width:5px;}.cls-2{font-size:43.6px;font-family:MyriadPro-Regular, Myriad Pro;}.cls-3{letter-spacing:-0.09em;}.cls-4{stroke-width:3px;}.cls-5{letter-spacing:-0.09em;}</style></defs><g id="Layer_2" data-name="Layer 2"><g id="Layer_1-2" data-name="Layer 1"><path class="cls-1" d="M393.68,183.66h56.48v31.88H241.78V334.62H63.16V66.7h387v46.13a79.7,79.7,0,0,0-25.09,13C398.07,146.7,394.3,177.68,393.68,183.66Z"/><text class="cls-2" transform="translate(36.49 253.1) rotate(-90)">11’11<tspan class="cls-3" x="98.49" y="0">”</tspan></text><text class="cls-2" transform="translate(108.59 397.57)">8’10<tspan class="cls-3" x="76.12" y="0">”</tspan></text><line x1="63.16" y1="352.16" x2="243.16" y2="352.16"/><line class="cls-4" x1="64.66" y1="352.16" x2="241.66" y2="352.16"/><rect x="63.16" y="342.41" width="3" height="19.5"/><rect x="240.16" y="342.41" width="3" height="19.5"/><line x1="44.66" y1="64.16" x2="44.66" y2="334.16"/><line class="cls-4" x1="44.66" y1="65.66" x2="44.66" y2="332.66"/><rect x="34.91" y="64.16" width="19.5" height="3"/><rect x="34.91" y="331.16" width="19.5" height="3"/><path class="cls-4" d="M453.16,183.66H393.68c.62-6,4.39-37,31.39-57.82a79.7,79.7,0,0,1,25.09-13"/><text class="cls-2" transform="translate(217.22 36.49) scale(0.96 1)">17’10<tspan class="cls-5" x="98.49" y="0">”</tspan></text><line x1="450.16" y1="45.66" x2="63.16" y2="45.66"/><line class="cls-4" x1="448.66" y1="45.66" x2="64.66" y2="45.66"/><rect x="447.16" y="35.91" width="3" height="19.5"/><rect x="63.16" y="35.91" width="3" height="19.5"/></g></g></svg>