<?xml version="1.0" encoding="UTF-8" standalone="no"?>
<!-- Created with Inkscape (http://www.inkscape.org/) -->

<svg
   version="1.1"
   id="svg48"
   width="500"
   height="500.33301"
   viewBox="0 0 500 500.33301"
   xml:space="preserve"
   xmlns="http://www.w3.org/2000/svg"
   xmlns:svg="http://www.w3.org/2000/svg"><defs
     id="defs52" /><g
     id="g54"><path
       style="fill:none;stroke:#000000"
       d="m 214.00217,208.46247 v 41.4839 h 5.09451 l -0.14112,44.03116 59.09193,-0.3639 -0.25251,-32.86183 h -4.11422 l -0.22277,-52.33491 -20.51918,0.0456 v 13.10018 l -4.36673,-0.3639 -3.63894,-1.81947 -2.54725,-2.54725 -1.81947,-4.00284 -0.72779,-4.33698 z"
       id="path15016" /><path
       style="fill:none;stroke:#000000;stroke-width:1.16572"
       d="m 202.54824,294.11762 h -25.92775 13.25218 l -0.57618,-85.60992 -13.25199,1.6e-4 24.199,-1.6e-4"
       id="path1021-3-8-8-9-0-4-4-6-9-3-7-8-8" /><path
       style="fill:none;stroke:#000000;stroke-width:0.971652"
       d="m 218.74071,326.97117 -1e-5,-25.92822 1e-5,13.25242 59.47722,-0.57619 -1.1e-4,-13.25222 1.1e-4,24.19944"
       id="path1021-3-8-8-9-0-4-4-6-9-3-7-8-3" /><text
       xml:space="preserve"
       style="font-size:12.3841px;fill:none;stroke:#000000;stroke-width:1.03201"
       x="219.45662"
       y="345.46902"
       id="text14193-0-2"
       transform="scale(1.0356017,0.96562221)"><tspan
         id="tspan14191-7-1"
         x="219.45662"
         y="345.46902"
         style="stroke-width:1.03201">11'-6''</tspan></text><text
       xml:space="preserve"
       style="font-size:13.2514px;fill:none;stroke:#000000;stroke-width:1.10428"
       x="-267.17661"
       y="173.49429"
       id="text14197-7-3"
       transform="matrix(0,-0.9657938,1.0354177,0,0,0)"><tspan
         id="tspan14195-9-5"
         x="-267.17661"
         y="173.49429"
         style="stroke-width:1.10428">17'</tspan></text></g></svg>
