<?xml version="1.0" encoding="UTF-8" standalone="no"?>
<!-- Created with Inkscape (http://www.inkscape.org/) -->

<svg
   version="1.1"
   id="svg48"
   width="500"
   height="500.33301"
   viewBox="0 0 500 500.33301"
   xml:space="preserve"
   xmlns="http://www.w3.org/2000/svg"
   xmlns:svg="http://www.w3.org/2000/svg"><defs
     id="defs52" /><g
     id="g54"><path
       style="fill:none;stroke:#000000;stroke-width:0.99401"
       d="m 188.80039,274.21404 22.1545,-0.0225 0.23605,17.96669 5.75709,-1.07439 4.15296,-2.09352 3.29575,-3.2426 2.75172,-4.45065 1.18608,-4.1557 0.73298,-3.08717 0.19768,-0.6926 19.10976,0.002 0.10394,26.80312 4.85621,0.17109 -0.33286,95.13712 -61.28885,-0.10495 -0.0656,-6.91489 -2.68783,-0.34855 z"
       id="path13079" /><path
       style="fill:none;stroke:#000000;stroke-width:0.788195"
       d="m 253.43617,399.51584 v 15.94821 -8.15131 l -63.63047,0.3544 v 8.15131 -14.88499"
       id="path1021-3-8-5-0" /><path
       style="fill:none;stroke:#000000;stroke-width:1.08327"
       d="m 160.64802,274.71309 h 15.9482 l -8.15132,-3e-5 0.35441,120.19008 h 8.15131 l -14.88499,3e-5"
       id="path1021-3-8-5-1" /><text
       xml:space="preserve"
       style="fill:none;stroke:#000000"
       x="201.32352"
       y="423.67267"
       id="text10224-9-1"><tspan
         id="tspan10222-7-7"
         x="201.32352"
         y="423.67267">10'-3''</tspan></text><text
       xml:space="preserve"
       style="fill:none;stroke:#000000"
       x="-350.40491"
       y="157.69156"
       id="text10224-9-13"
       transform="rotate(-90)"><tspan
         id="tspan10222-7-4"
         x="-350.40491"
         y="157.69156">19'-6''</tspan></text></g></svg>
