<?xml version="1.0" encoding="UTF-8" standalone="no"?>
<!-- Created with Inkscape (http://www.inkscape.org/) -->

<svg
   version="1.1"
   id="svg48"
   width="500"
   height="500.33301"
   viewBox="0 0 500 500.33301"
   xml:space="preserve"
   xmlns="http://www.w3.org/2000/svg"
   xmlns:svg="http://www.w3.org/2000/svg"><defs
     id="defs52" /><g
     id="g54"><path
       style="fill:none;stroke:#000000"
       d="m 249.30188,319.63743 c 0.45032,-24.73282 -0.22025,-24.58371 -0.22025,-24.58371 l 7.98568,2.66818 4.29087,2.36923 5.1396,4.99191 3.72413,5.21519 2.11495,6.04945 0.66991,4.24635 19.86076,-0.0867 -0.39844,-28.86023 23.28761,0.1523 -0.65375,-124.15667 -14.27394,-0.18 -0.23704,-9.71446 -77.43156,0.0196 -0.0163,10.23589 -3.84407,-0.25383 0.43021,126.86764 5.88519,0.5219 -0.0479,24.52433 z"
       id="path13268" /><path
       style="fill:none;stroke:#000000;stroke-width:0.964256"
       d="m 314.25425,136.88406 v 15.94821 -8.15131 l -95.23191,0.3544 v 8.15131 -14.88499"
       id="path1021-3-8-8-9" /><path
       style="fill:none;stroke:#000000;stroke-width:1.21802"
       d="m 204.88985,319.5119 -15.94789,-4e-5 8.15115,10e-6 -0.35439,-151.9533 -8.15116,3e-5 14.88468,-3e-5"
       id="path1021-3-8-8-9-0" /><text
       xml:space="preserve"
       style="fill:none;stroke:#000000"
       x="258.75525"
       y="138.58687"
       id="text1206-7"><tspan
         id="tspan1204-5"
         x="258.75525"
         y="138.58687">10'</tspan></text><text
       xml:space="preserve"
       style="fill:none;stroke:#000000"
       x="-254.40736"
       y="183.17184"
       id="text1206-5"
       transform="rotate(-90)"><tspan
         id="tspan1204-2"
         x="-254.40736"
         y="183.17184">19'-6''</tspan></text></g></svg>
