<?xml version="1.0" encoding="UTF-8" standalone="no"?>
<!-- Created with Inkscape (http://www.inkscape.org/) -->

<svg
   width="210mm"
   height="297mm"
   viewBox="0 0 210 297"
   version="1.1"
   id="svg5"
   xml:space="preserve"
   xmlns="http://www.w3.org/2000/svg"
   xmlns:svg="http://www.w3.org/2000/svg"><defs
     id="defs2" /><g
     id="layer1"><path
       style="fill:none;stroke:#000000;stroke-width:0.264583"
       d="m 40.75558,108.37659 0.0563,2.56085 35.91969,0.0999 -0.0666,-22.670351 -9.58746,-0.03329 0.0333,-9.820489 h -1.6312 l -0.0333,6.657959 H 64.74722 L 63.98156,84.97143 63.31576,84.705111 62.74983,84.505371 61.8843,84.006026 61.11863,83.273649 60.586,82.707723 59.88691,81.70903 l -0.26632,-0.665798 -0.16645,-0.665794 -0.13315,-0.466059 -0.0333,-1.364882 -3.46214,-0.03329 -0.0333,1.33159 h -2.06397 v -1.231723 l -12.88315,-0.06658 -0.0333,16.445161 v 0.233029 h -0.9987 v -1.098563 l -4.29438,-0.03329 -0.0333,7.390339 4.32767,-0.0999 0.0333,-0.69909 h 0.79896 5.39294 l 0.0333,-0.66579 V 99.552356 L 45.90518,99.15288 45.80528,98.753402 45.50567,98.154187 45.23935,97.721418 44.74,97.22207 l -0.53263,-0.532635 -0.63251,-0.466058 -1.26501,-0.565925 -0.93212,-0.266319 -0.6325,-0.16645 h -0.93212 l 0.0333,-1.131853 -4.36096,0.03329 0.0333,7.32376 4.36096,-0.0666 -0.0333,-0.73238 0.86554,0.0666 v 2.297 H 39.8797 v -0.79896 l -4.36096,0.0333 v 0.0666 l 0.0999,7.5235 4.2278,-0.0666 0.003,-1.41925 z"
       id="path2156" /><path
       style="fill:none;stroke:#000000;stroke-width:0.264583"
       d="m 40.69673,103.03313 0.85919,0.0353 0.57672,0.0942 0.3884,0.16478 0.56495,0.2707 0.35309,0.21186 0.52964,0.40017 0.32955,0.31778 0.45902,0.45902 0.55317,0.64733 0.42372,0.82388 0.37663,0.92981 0.0118,0.60026 v 0.28247 l -5.39053,-0.0236 5.43761,0.0353 -0.0236,-0.87096 -0.37663,-0.8945 -0.28247,-0.61202 -0.42371,-0.58849 -1.17697,-1.12989 -0.42371,-0.35309 -0.44725,-0.28247 -0.8945,-0.37664 -0.61203,-0.0942 z"
       id="path2158" /><path
       style="fill:none;stroke:#000000;stroke-width:0.264583"
       d="m 34.98619,116.09736 0.13316,4.39425 z"
       id="path2160" /><path
       style="fill:none;stroke:#000000;stroke-width:0.264583"
       d="m 35.11935,118.09475 42.16439,0.007 z"
       id="path2162" /><path
       style="fill:none;stroke:#000000;stroke-width:0.262131"
       d="m 83.40235,111.35843 0.0892,-34.320413 z"
       id="path2162-8" /><path
       style="fill:none;stroke:#000000;stroke-width:0.264583"
       d="m 77.0645,116.36368 0.14514,2.32225 0.12118,1.93884 z"
       id="path2164" /><text
       xml:space="preserve"
       style="font-size:3.175px;fill:none;stroke:#000000;stroke-width:0.264583"
       x="50.712887"
       y="122.21575"
       id="text2168"><tspan
         id="tspan2166"
         style="stroke-width:0.264583"
         x="50.712887"
         y="122.21575">16'-5&quot;</tspan></text><path
       style="fill:none;stroke:#000000;stroke-width:0.264583"
       d="m 80.18669,76.89439 h 6.41122 z"
       id="path2192" /><path
       style="fill:none;stroke:#000000;stroke-width:0.264583"
       d="M 80.26888,111.53685 H 86.6801 Z"
       id="path2192-8" /><text
       xml:space="preserve"
       style="font-size:3.175px;fill:none;stroke:#000000;stroke-width:0.264583"
       x="90.738007"
       y="-86.395699"
       id="text2168-5"
       transform="rotate(90)"><tspan
         id="tspan2166-3"
         style="stroke-width:0.264583"
         x="90.738007"
         y="-86.395699">15'-2&quot;</tspan></text></g></svg>
