<svg xmlns="http://www.w3.org/2000/svg" viewBox="0 0 353.16 459.16"><defs><style>.cls-1,.cls-4{fill:none;stroke:#000;stroke-miterlimit:10;}.cls-1{stroke-width:4px;}.cls-2{font-size:43.6px;font-family:MyriadPro-Regular, Myriad Pro;}.cls-3{letter-spacing:-0.09em;}.cls-4{stroke-width:3px;}</style></defs><g id="Layer_2" data-name="Layer 2"><g id="Layer_1-2" data-name="Layer 1"><path class="cls-1" d="M351.16,72.16v378h-108a83.68,83.68,0,0,0-18-36,84.94,84.94,0,0,0-45-27v63h-99v-378Z"/><polyline class="cls-1" points="81.16 351.16 153.16 351.16 153.16 369.16"/><polyline class="cls-1" points="153.16 432.16 153.16 450.16 81.16 450.16"/><line class="cls-1" x1="279.16" y1="450.16" x2="279.16" y2="432.16"/><polyline class="cls-1" points="279.16 369.16 279.16 351.16 351.16 351.16"/><path class="cls-1" d="M180.16,450.16v-63a84.94,84.94,0,0,1,45,27,83.68,83.68,0,0,1,18,36"/><text class="cls-2" transform="translate(36.49 279.1) rotate(-90) scale(0.96 1)">16’2<tspan class="cls-3" x="76.12" y="0">”</tspan></text><line x1="53.66" y1="72.16" x2="53.66" y2="459.16"/><line class="cls-4" x1="53.66" y1="73.66" x2="53.66" y2="457.66"/><rect x="43.91" y="72.16" width="19.5" height="3"/><rect x="43.91" y="456.16" width="19.5" height="3"/><text class="cls-2" transform="translate(189.22 36.49) scale(0.96 1)">11’2<tspan class="cls-3" x="76.12" y="0">”</tspan></text><line x1="351.16" y1="53.66" x2="81.16" y2="53.66"/><line class="cls-4" x1="349.66" y1="53.66" x2="82.66" y2="53.66"/><rect x="348.16" y="43.91" width="3" height="19.5"/><rect x="81.16" y="43.91" width="3" height="19.5"/></g></g></svg>