<?xml version="1.0" encoding="UTF-8" standalone="no"?>
<!-- Created with Inkscape (http://www.inkscape.org/) -->

<svg
   version="1.1"
   id="svg48"
   width="500"
   height="500.33301"
   viewBox="0 0 500 500.33301"
   xml:space="preserve"
   xmlns="http://www.w3.org/2000/svg"
   xmlns:svg="http://www.w3.org/2000/svg"><defs
     id="defs52" /><g
     id="g54"><path
       style="fill:none;stroke:#000000;stroke-width:0.997253"
       d="m 199.43327,192.39217 0.25198,-63.64484 H 137.9513 l -0.48019,105.94837 61.24365,-0.0295 0.21455,-7.55247 v -16.93106 h -16.88233 l 0.50394,-4.25969 1.25988,-3.00684 2.26778,-3.25741 3.52766,-3.25742 4.0316,-2.25513 2.77172,-1.00228 z"
       id="path7888" /><path
       style="fill:none;stroke:#000000;stroke-width:0.770242"
       d="m 198.86001,98.858821 v 15.948209 -8.15131 l -60.76483,0.3544 v 8.15131 -14.88499"
       id="path1021-3-8" /><path
       style="fill:none;stroke:#000000"
       d="m 260.97287,192.72409 -0.25196,-63.99886 61.73118,2e-5 1.30208,106.70185 -62.10651,-0.21465 -0.17085,-24.59887 16.88157,-1e-4 -0.50394,-4.2834 -1.25979,-3.02354 -2.2677,-3.27546 -3.52753,-3.27551 -4.03138,-2.2677 -2.77159,-1.00791 z"
       id="path7888-1" /><path
       style="fill:none;stroke:#000000;stroke-width:0.778296"
       d="m 260.87565,98.709121 v 15.948209 -8.15131 l -62.04217,0.3544 v 8.15131 -14.88499"
       id="path1021-3-8-4" /><path
       style="fill:none;stroke:#000000;stroke-width:0.770242"
       d="m 321.68007,98.385731 v 15.948209 -8.15131 l -60.76482,0.3544 v 8.15131 -14.884989"
       id="path1021-3-8-0" /><path
       style="fill:none;stroke:#000000;stroke-width:0.782291"
       d="m 323.57449,247.71367 v 15.94821 -8.15131 l -62.68084,0.3544 v 8.15131 -14.88499"
       id="path1021-3-8-5" /><path
       style="fill:none;stroke:#000000;stroke-width:1.00973"
       d="m 123.01135,233.31867 -15.94825,1e-5 8.15134,-1e-5 -0.35441,-104.42696 -8.15133,2e-5 14.88502,1e-5"
       id="path1021-3-8-09" /><path
       style="fill:none;stroke:#000000;stroke-width:1.02323"
       d="m 349.89695,236.24289 -15.94821,1e-5 8.15131,-1e-5 -0.3544,-107.23649 -8.15131,2e-5 14.88498,1e-5"
       id="path1021-3-8-09-4" /><path
       style="fill:none;stroke:#000000;stroke-width:0.770242"
       d="m 198.26262,245.11553 v 15.94821 -8.15131 l -60.76483,0.3544 v 8.15131 -14.88499"
       id="path1021-3-8-8" /><text
       xml:space="preserve"
       style="fill:none;stroke:#000000"
       x="150.62534"
       y="99.745987"
       id="text10224"><tspan
         id="tspan10222"
         x="150.62534"
         y="99.745987">10'-3''</tspan></text><text
       xml:space="preserve"
       style="fill:none;stroke:#000000"
       x="211.16537"
       y="100.33315"
       id="text10224-2"><tspan
         id="tspan10222-5"
         x="211.16537"
         y="100.33315">10'-3''</tspan></text><text
       xml:space="preserve"
       style="fill:none;stroke:#000000"
       x="271.31494"
       y="100.33315"
       id="text10224-1"><tspan
         id="tspan10222-3"
         x="271.31494"
         y="100.33315">10'-3''</tspan></text><text
       xml:space="preserve"
       style="fill:none;stroke:#000000"
       x="148.25555"
       y="273.52316"
       id="text10224-9"><tspan
         id="tspan10222-7"
         x="148.25555"
         y="273.52316">10'-3''</tspan></text><text
       xml:space="preserve"
       style="fill:none;stroke:#000000"
       x="271.52737"
       y="275.42438"
       id="text10224-3"><tspan
         id="tspan10222-75"
         x="271.52737"
         y="275.42438">10'-3''</tspan></text><text
       xml:space="preserve"
       style="fill:none;stroke:#000000"
       x="-184.34578"
       y="108.07021"
       id="text10224-0"
       transform="rotate(-90)"><tspan
         id="tspan10222-2"
         x="-184.34578"
         y="108.07021">17'</tspan></text><text
       xml:space="preserve"
       style="fill:none;stroke:#000000"
       x="167.1133"
       y="-350.2478"
       id="text10224-16"
       transform="rotate(90)"><tspan
         id="tspan10222-1"
         x="167.1133"
         y="-350.2478">17'</tspan></text><path
       style="fill:none;stroke:#000000"
       d="m 219.1997,258.55952 c 2.45489,0.20457 4.90978,1.22744 4.90978,1.22744 l 1.43201,1.02287 1.02287,1.02287 1.22745,1.43202 1.02287,1.63659 0.40915,0.8183 0.40914,1.02287 0.11924,1.35854 -0.075,2.02125 c 4.10958,0.1096 9.10569,0.0897 14.72422,0.0522 l -0.0799,-10.11204 -0.08,-24.27233 16.65259,0.13355 -0.22055,-9.09589 -0.15115,-16.57639 17.74055,0.11159 -0.69295,-4.85068 -1.6091,-3.22989 -1.16272,-1.84397 -1.97897,-1.85569 -2.42534,-1.85567 -2.56034,-1.6208 -2.11397,-0.79285 -2.23726,-0.34647 -2.50183,-0.33478 -0.11159,-0.088 v -64.71492 l -61.32679,-8e-5 -0.11463,63.98629 -3.92847,0.917 -2.66761,1.03943 -2.54778,1.50314 -3.11829,2.652 -2.19869,2.19868 -1.15406,2.1935 -1.38591,3.23812 -0.57573,3.91807 17.92302,-0.22925 -0.22705,24.28534 19.3745,0.21455 0.01,22.67464 0.0128,12.71925"
       id="path12843" /></g></svg>
