<?xml version="1.0" encoding="UTF-8" standalone="no"?>
<!-- Created with Inkscape (http://www.inkscape.org/) -->

<svg
   version="1.1"
   id="svg2"
   width="500"
   height="500"
   viewBox="0 0 500 499.99999"
   xml:space="preserve"
   xmlns="http://www.w3.org/2000/svg"
   xmlns:svg="http://www.w3.org/2000/svg"><defs
     id="defs6" /><g
     id="g8"
     style="display:inline"><path
       style="fill:none;stroke:#000000;stroke-opacity:1"
       d="m 213.96101,214.58447 0.38157,159.70484 117.87267,0.25962 0.15209,-7.32997 8.67538,0.0603 -0.51926,-152.14402 -5.74339,-0.063 v -8.64388 l -42.73165,0.33567 0.0387,4.17761 -0.73434,3.85532 -1.83587,4.03892 -2.9374,5.32403 -2.47843,2.93739 -2.11125,2.01946 -2.7538,2.20305 -4.03892,2.01946 -4.03892,2.01945 -6.42555,1.28511 -4.40609,0.55077 -0.73435,-0.22949 -0.36718,-29.8788 -34.05542,0.18358 0.0918,7.25169 z"
       id="path10258" /><path
       style="fill:none;stroke:#000000;stroke-opacity:1"
       d="m 212.22674,387.73606 0.36718,18.72589 z"
       id="path10260" /><path
       style="fill:none;stroke:#000000;stroke-opacity:1"
       d="m 212.22674,397.28259 129.61253,-0.73435 z"
       id="path10262" /><path
       style="fill:none;stroke:#000000;stroke-opacity:1"
       d="m 341.83927,388.10323 0.73435,16.89002 z"
       id="path10264" /><path
       style="fill:none;stroke:#000000;stroke-opacity:1"
       d="m 184.62438,208.18783 0.36717,166.69713 z"
       id="path10266" /><text
       xml:space="preserve"
       style="fill:none;stroke:#000000;stroke-opacity:1"
       x="-303.36984"
       y="177.62637"
       id="text10270"
       transform="rotate(-90)"><tspan
         id="tspan10268"
         x="-303.36984"
         y="177.62637">15'</tspan></text><text
       xml:space="preserve"
       style="fill:none;stroke:#000000;stroke-opacity:1"
       x="266.56851"
       y="415.2352"
       id="text10274"><tspan
         id="tspan10272"
         x="266.56851"
         y="415.2352">11-6'</tspan></text><path
       style="fill:none;stroke:#000000;stroke-opacity:1"
       d="m 173.67344,208.18783 h 22.39764 z"
       id="path10276" /><path
       style="display:inline;fill:none;stroke:#000000;stroke-opacity:1"
       d="m 174.7555,374.18783 h 22.39764 z"
       id="path10276-4" /></g></svg>
