<?xml version="1.0" encoding="UTF-8" standalone="no"?>
<!-- Created with Inkscape (http://www.inkscape.org/) -->

<svg
   version="1.1"
   id="svg2"
   width="500"
   height="500"
   viewBox="0 0 500 499.99999"
   xml:space="preserve"
   xmlns="http://www.w3.org/2000/svg"
   xmlns:svg="http://www.w3.org/2000/svg"><defs
     id="defs6" /><g
     id="g8"
     style="display:inline"><path
       style="fill:none;stroke:#000000;stroke-opacity:1"
       d="m 128.57532,186.76988 h 126.30795 l -0.73434,170.0017 h -53.24028 l -7.71066,-0.36718 -0.73435,-32.67851 -5.04864,0.64255 -3.76354,1.19332 -6.24196,2.8456 -5.50762,3.76354 -4.40609,4.49789 -1.10152,1.74407 -2.38664,4.2225 -1.2851,4.95686 -1.10153,8.44501 -33.78003,-0.36717 z"
       id="path8250" /><path
       style="fill:none;stroke:#000000;stroke-opacity:1"
       d="m 268.46872,187.8714 h 17.25719 z"
       id="path8252" /><path
       style="fill:none;stroke:#000000;stroke-opacity:1"
       d="m 277.28091,187.50423 0.73434,168.533 z"
       id="path8254" /><path
       style="fill:none;stroke:#000000;stroke-opacity:1"
       d="m 269.20307,355.67006 15.7885,-0.36718 z"
       id="path8256" /><path
       style="fill:none;stroke:#000000;stroke-opacity:1"
       d="m 124.5364,156.29441 0.36717,15.05415 z"
       id="path8258" /><path
       style="fill:none;stroke:#000000;stroke-opacity:1"
       d="m 124.90357,163.6379 128.14383,0.73435 z"
       id="path8260" /><path
       style="fill:none;stroke:#000000;stroke-opacity:1"
       d="m 253.0474,155.92724 0.36718,16.89002 z"
       id="path8262" /><path
       style="fill:none;stroke:#000000;stroke-opacity:1"
       d="m 199.2667,356.69058 -0.25963,-34.79061 z"
       id="path8264" /><path
       style="fill:none;stroke:#000000;stroke-opacity:1"
       d="m 128.12769,323.97702 29.85761,-0.25963 z"
       id="path8266" /><text
       xml:space="preserve"
       style="fill:none;stroke:#000000;stroke-opacity:1"
       x="175.38063"
       y="158.59177"
       id="text8270"><tspan
         id="tspan8268"
         x="175.38063"
         y="158.59177">11'-6&quot;</tspan></text><text
       xml:space="preserve"
       style="white-space:pre;inline-size:19.5255;display:inline;fill:none;stroke:#000000;stroke-opacity:1"
       x="406.42081"
       y="215.80777"
       id="text8270-4"
       transform="rotate(90,326.90402,176.78234)"><tspan
         x="406.42081"
         y="215.80777"
         id="tspan9929">15'</tspan></text></g></svg>
