<?xml version="1.0" encoding="UTF-8" standalone="no"?>
<!-- Created with Inkscape (http://www.inkscape.org/) -->

<svg
   version="1.1"
   id="svg2"
   width="500"
   height="500"
   viewBox="0 0 500 499.99999"
   xml:space="preserve"
   xmlns="http://www.w3.org/2000/svg"
   xmlns:svg="http://www.w3.org/2000/svg"><defs
     id="defs6" /><g
     id="g8"
     style="display:inline"><path
       style="fill:none;stroke:#000000;stroke-opacity:1"
       d="m 153.7018,262.74701 0.51927,141.2395 h 3.89447 l -0.12982,7.13986 39.59379,-0.12981 -0.12981,-26.09296 3.24539,0.12981 4.1541,0.7789 4.15411,2.20687 3.50502,2.07705 3.50503,2.98576 3.89447,5.58207 1.03852,1.29816 1.16834,3.63484 1.03853,3.50503 0.12982,3.24539 0.12981,0.51926 35.05024,0.64908 0.12982,-7.3995 7.52931,0.12982 -0.25963,-131.63314 -15.31825,0.51927 0.25963,-10.38526 z"
       id="path9955" /><path
       style="fill:none;stroke:#000000;stroke-opacity:1"
       d="m 153.7018,379.32152 37.1273,0.51926 z"
       id="path9957" /><path
       style="fill:none;stroke:#000000;stroke-opacity:1"
       d="m 228.73529,379.84078 h 37.64655 z"
       id="path9959" /><path
       style="fill:none;stroke:#000000;stroke-opacity:1"
       d="M 125.40198,264.56443 H 139.6817 Z"
       id="path9961" /><path
       style="fill:none;stroke:#000000;stroke-opacity:1"
       d="m 132.15239,264.04517 0.25963,148.50918 z"
       id="path9963" /><path
       style="fill:none;stroke:#000000;stroke-opacity:1"
       d="m 125.14234,412.29471 14.53936,-0.25963 z"
       id="path9965" /><path
       style="fill:none;stroke:#000000;stroke-opacity:1"
       d="m 152.66328,232.88939 0.25963,15.57789 z"
       id="path9967" /><path
       style="fill:none;stroke:#000000;stroke-opacity:1"
       d="m 152.92291,240.41871 113.1993,0.77889 z"
       id="path9969" /><path
       style="fill:none;stroke:#000000;stroke-opacity:1"
       d="m 265.86258,233.40866 0.51926,15.05862 z"
       id="path9971" /><text
       xml:space="preserve"
       style="fill:none;stroke:#000000;stroke-opacity:1"
       x="201.99329"
       y="236.52423"
       id="text9975"><tspan
         id="tspan9973"
         x="201.99329"
         y="236.52423">12'</tspan></text><text
       xml:space="preserve"
       style="fill:none;stroke:#000000;stroke-opacity:1"
       x="-346.6286"
       y="124.86072"
       id="text9979"
       transform="rotate(-90)"><tspan
         id="tspan9977"
         x="-346.6286"
         y="124.86072">16'</tspan></text></g></svg>
