<?xml version="1.0" encoding="UTF-8" standalone="no"?>
<!-- Created with Inkscape (http://www.inkscape.org/) -->

<svg
   version="1.1"
   id="svg48"
   width="500"
   height="500.33301"
   viewBox="0 0 500 500.33301"
   sodipodi:docname="Screenshot 2022-11-12 at 10.34.41 AM.png"
   inkscape:export-filename="Field Double.svg"
   inkscape:export-xdpi="96"
   inkscape:export-ydpi="96"
   xmlns:inkscape="http://www.inkscape.org/namespaces/inkscape"
   xmlns:sodipodi="http://sodipodi.sourceforge.net/DTD/sodipodi-0.dtd"
   xmlns="http://www.w3.org/2000/svg"
   xmlns:svg="http://www.w3.org/2000/svg">
  <defs
     id="defs52" />
  <sodipodi:namedview
     id="namedview50"
     pagecolor="#ffffff"
     bordercolor="#000000"
     borderopacity="0.25"
     inkscape:showpageshadow="2"
     inkscape:pageopacity="0.0"
     inkscape:pagecheckerboard="0"
     inkscape:deskcolor="#d1d1d1"
     showgrid="false" />
  <g
     inkscape:groupmode="layer"
     inkscape:label="Image"
     id="g54">
    <path
       style="fill:none;stroke:#000000"
       d="m 107.14241,107.79238 0.20195,4.45482 1.2691,5.21706 2.68279,3.94992 3.7955,3.28865 5.31608,1.92448 4.30432,0.3544 -0.0515,-19.08835 h 25.51713 l 0.20196,25.92302 -24.65588,-0.0515 v -11.34094 11.34094 l 24.60638,0.15245 0.30293,64.70361 -34.47823,-0.35441 v 9.92333 l 34.73165,0.35441 -0.25342,-9.92333 0.25342,9.56892 H 81.068911 l 0.05148,-9.6699 34.680169,-0.25343 v 9.92333 l 0.10098,-9.82235 -34.832626,-0.10098 0.03016,-64.85854 25.486976,0.35689 v -11.34094 11.34094 l -25.430369,-0.28396 -0.08676,-25.94198 z"
       id="path1017"
       sodipodi:nodetypes="ccccccccccccccccccccccccccccccccc" />
    <path
       style="fill:none;stroke:#000000;stroke-width:0.993123"
       d="m 156.55711,107.88651 h 15.94821 -8.15131 l 0.3544,101.01903 h 8.15131 -14.88499"
       id="path1021" />
    <path
       style="fill:none;stroke:#000000;stroke-width:0.823117"
       d="m 150.55724,211.98898 v 15.94821 -8.15131 l -69.393856,0.3544 v 8.15131 -14.88499"
       id="path1021-3" />
    <text
       xml:space="preserve"
       style="fill:none;stroke:#000000"
       x="97.01712"
       y="234.06139"
       id="text1206"><tspan
         sodipodi:role="line"
         id="tspan1204"
         x="97.01712"
         y="234.06139">11'-8''</tspan></text>
    <text
       xml:space="preserve"
       style="fill:none;stroke:#000000"
       x="139.73964"
       y="-170.77725"
       id="text1210"
       transform="rotate(90)"><tspan
         sodipodi:role="line"
         id="tspan1208"
         x="139.73964"
         y="-170.77725">18'-6''</tspan></text>
  </g>
</svg>
