<svg xmlns="http://www.w3.org/2000/svg" viewBox="0 0 425.46 440.63"><defs><style>.cls-1{fill:none;stroke:#000;stroke-miterlimit:10;stroke-width:4px;}.cls-2{font-size:43.6px;font-family:MyriadPro-Regular, Myriad Pro;}.cls-3{letter-spacing:-0.09em;}</style></defs><g id="Layer_2" data-name="Layer 2"><g id="Layer_1-2" data-name="Layer 1"><path class="cls-1" d="M423.46,232.43h-63a84.94,84.94,0,0,0,27,45,83.68,83.68,0,0,0,36,18v143.2H241.06v-114H81.46V73.83h159.6v114h182.4Z"/><line class="cls-1" x1="53.96" y1="81.43" x2="53.96" y2="320.43"/><rect x="40.96" y="79.43" width="26" height="4"/><rect x="40.96" y="318.43" width="26" height="4"/><text class="cls-2" transform="translate(36.49 232.24) rotate(-90)">12’2<tspan class="cls-3" x="76.12" y="0">”</tspan></text><line class="cls-1" x1="241.46" y1="52.93" x2="83.46" y2="52.93"/><rect x="239.46" y="39.93" width="4" height="26"/><rect x="81.46" y="39.93" width="4" height="26"/><text class="cls-2" transform="translate(126.84 36.49)">8’2<tspan class="cls-3" x="53.76" y="0">”</tspan></text><line class="cls-1" x1="421.46" y1="168.93" x2="245.46" y2="168.93"/><rect x="419.46" y="155.93" width="4" height="26"/><rect x="243.46" y="155.93" width="4" height="26"/><text class="cls-2" transform="translate(306.84 160.49)">8’4<tspan class="cls-3" x="53.76" y="0">”</tspan></text><path class="cls-1" d="M423.46,295.43a83.68,83.68,0,0,1-36-18,84.94,84.94,0,0,1-27-45h63"/></g></g></svg>