<svg xmlns="http://www.w3.org/2000/svg" viewBox="0 0 145 77.32"><defs><style>.cls-1{fill:#c1272d;}.cls-1,.cls-2,.cls-3{stroke:#000;stroke-miterlimit:10;}.cls-1,.cls-2{stroke-width:4px;}.cls-2{fill:#ccc;}.cls-3{fill:#e6e6e6;stroke-width:2px;}.cls-4{opacity:0.2;}.cls-5{opacity:0.3;}.cls-6{fill:#fff;}</style></defs><g id="Layer_2" data-name="Layer 2"><g id="Layer_1-2" data-name="Layer 1"><path class="cls-1" d="M44,2h95.78A3.22,3.22,0,0,1,143,5.22V72.1a3.22,3.22,0,0,1-3.22,3.22H44Z"/><path class="cls-2" d="M5.22,2H44V75.32H5.22A3.22,3.22,0,0,1,2,72.1V5.22A3.22,3.22,0,0,1,5.22,2Z"/><rect class="cls-3" x="0.3" y="25.74" width="45.24" height="25.84" rx="5.05" transform="translate(-15.74 61.58) rotate(-90)"/><path class="cls-4" d="M2,24.1H143V5.22c0-.11,0-.22,0-.33C142.74,3.27,140.75,2,138.32,2H5.22Z"/><g class="cls-5"><path class="cls-6" d="M26,69.1a81.59,81.59,0,0,1,13.5-2.35q6.75-.66,13.5-.65c4.5,0,9,.2,13.5.64A80.59,80.59,0,0,1,80,69.1a80.59,80.59,0,0,1-13.5,2.36c-4.5.44-9,.64-13.5.64s-9-.21-13.5-.65A81.59,81.59,0,0,1,26,69.1Z"/></g></g></g></svg>