<svg xmlns="http://www.w3.org/2000/svg" viewBox="0 0 307.82 416.16"><defs><style>.cls-1,.cls-4{fill:none;stroke:#000;stroke-miterlimit:10;}.cls-1{stroke-width:4px;}.cls-2{font-size:43.6px;font-family:MyriadPro-Regular, Myriad Pro;}.cls-3{letter-spacing:-0.09em;}.cls-4{stroke-width:3px;}.cls-5{letter-spacing:-0.09em;}</style></defs><g id="Layer_2" data-name="Layer 2"><g id="Layer_1-2" data-name="Layer 1"><polyline class="cls-1" points="82.72 414.16 116 414.16 116 271.66 232.1 271.66 232.1 72.16 2 72.16 2 414.16 28.97 414.16"/><text class="cls-2" transform="translate(82.78 36.49) scale(0.96 1)">11’8<tspan class="cls-3" x="76.12" y="0">”</tspan></text><line x1="235.72" y1="54.66" x2="1.72" y2="54.66"/><line class="cls-4" x1="234.22" y1="54.66" x2="3.22" y2="54.66"/><rect x="232.72" y="44.91" width="3" height="19.5"/><rect x="1.72" y="44.91" width="3" height="19.5"/><line x1="253.22" y1="72.16" x2="253.22" y2="270.16"/><line class="cls-4" x1="253.22" y1="73.66" x2="253.22" y2="268.66"/><rect x="243.47" y="72.16" width="19.5" height="3"/><rect x="243.47" y="267.16" width="19.5" height="3"/><text class="cls-2" transform="translate(271.33 143.8) rotate(90)">8’7<tspan class="cls-5" x="53.76" y="0">”</tspan></text><path class="cls-1" d="M82.72,414.16v-54c-2.15,0-31.08-.06-46.07,23.14-8.12,12.58-8,25.58-7.68,30.86"/></g></g></svg>