<?xml version="1.0" encoding="UTF-8" standalone="no"?>
<!-- Created with Inkscape (http://www.inkscape.org/) -->

<svg
   width="210mm"
   height="297mm"
   viewBox="0 0 210 297"
   version="1.1"
   id="svg5"
   xml:space="preserve"
   xmlns="http://www.w3.org/2000/svg"
   xmlns:svg="http://www.w3.org/2000/svg"><defs
     id="defs2" /><g
     id="layer1"><path
       style="fill:none;stroke:#000000;stroke-width:0.264583"
       d="m 237.07233,157.73414 3.76904,48.62055 -30.71764,-39.19797 z"
       id="path856" /><path
       style="fill:none;stroke:#000000;stroke-width:0.264583"
       d="m 106.18812,135.19107 8.41333,0.0219 -0.0333,2.23792 1.41235,0.006 -0.28247,35.30916 -23.162803,0.0942 -0.0276,-1.50652 h -2.89131 v -36.25075 l 10.479093,0.0219 0.19397,1.82229 0.74757,1.66155 1.3182,1.50652 1.41238,0.84742 1.34006,0.43179 1.09661,0.0999 z"
       id="path914" /><path
       style="fill:none;stroke:#000000;stroke-width:0.261978"
       d="m 115.7175,177.96774 -0.0653,-3.79599 v 1.93129 l -26.038233,0.26639 c 0,0 0,1.93129 0,-2.19768 0,3.6628 0,3.5962 0,3.5962 l 0.0653,-3.32982 -0.0653,-0.26638"
       id="path1801" /><path
       style="fill:none;stroke:#000000;stroke-width:0.313347"
       d="m 119.62227,172.88637 3.77706,-0.0939 h -1.92168 L 121.2126,135.3552 c 0,0 -1.92167,0 2.18672,3e-5 -3.64454,-3e-5 -3.57827,1e-5 -3.57827,1e-5 l 3.31322,0.0939 0.26509,-0.0937"
       id="path1801-6" /><text
       xml:space="preserve"
       style="font-size:3.175px;fill:none;stroke:#000000;stroke-width:0.264583"
       x="100.60175"
       y="180.03122"
       id="text1879"><tspan
         id="tspan1877"
         style="stroke-width:0.264583"
         x="100.60175"
         y="180.03122">12'</tspan></text><text
       xml:space="preserve"
       style="font-size:3.175px;fill:none;stroke:#000000;stroke-width:0.264583"
       x="151.4913"
       y="-123.91578"
       id="text1883"
       transform="rotate(90)"><tspan
         id="tspan1881"
         style="stroke-width:0.264583"
         x="151.4913"
         y="-123.91578">17'</tspan></text><path
       style="fill:none;stroke:#000000;stroke-width:0.264583"
       d="m 89.522187,143.43558 9.03915,0.0471 z"
       id="path1941" /><path
       style="fill:none;stroke:#000000;stroke-width:0.264583"
       d="m 98.426577,143.48022 0.005,-1.22405 c 0.0115,0.40802 -0.003,0.81603 -0.005,1.22405 z"
       id="path1943" /><path
       style="fill:none;stroke:#000000;stroke-width:0.264583"
       d="m 98.467167,135.05554 v 1.88316 z"
       id="path1945" /><path
       style="fill:none;stroke:#000000;stroke-width:0.264583"
       d="m 107.59262,143.34587 8.38904,0.13316 z"
       id="path1947" /><path
       style="fill:none;stroke:#000000;stroke-width:0.264583"
       d="m 107.69855,143.48307 v -0.99869 z"
       id="path1949" /></g></svg>
