<?xml version="1.0" encoding="UTF-8" standalone="no"?>
<!-- Created with Inkscape (http://www.inkscape.org/) -->

<svg
   width="210mm"
   height="297mm"
   viewBox="0 0 210 297"
   version="1.1"
   id="svg5"
   xml:space="preserve"
   xmlns="http://www.w3.org/2000/svg"
   xmlns:svg="http://www.w3.org/2000/svg"><defs
     id="defs2" /><g
     id="layer1"><path
       style="fill:none;stroke:#000000;stroke-width:0.264583"
       d="m 98.304243,160.99293 13.315917,-0.13316 0.13316,-4.26109 h 6.55809 l 0.0333,4.46083 36.68536,-0.0666 -0.13317,-52.59788 -60.587425,-0.26632 2e-5,35.75324 -7.456903,0.0666 -0.13314,17.04438 1.33159,0.0333 0.0333,-10.7859 1.398174,0.19977 0.798963,0.16645 1.264991,0.43277 1.231704,0.49935 0.932124,0.49935 0.898817,0.6325 1.06529,1.03199 0.998667,1.06527 0.732384,1.23172 0.565917,1.66449 0.36619,1.16514 0.133157,1.06528 z"
       id="path2026" /><path
       style="fill:none;stroke:#000000;stroke-width:0.264583"
       d="m 94.376065,124.97337 8.255855,0.0666 -0.0666,-4.12794 h 1.53133 l -0.0666,10.91906 v 0.3329 l 8.85508,0.13316 v 1.06527 l -0.25419,0.91261 -0.79896,1.92677 -1.34371,1.88777 -1.39411,1.27309 -1.70213,0.9583 -2.16355,0.59251 -2.66319,0.039 -0.0666,1.59791 -8.322432,-0.13316 z"
       id="path2028" /><path
       style="fill:none;stroke:#000000;stroke-width:0.264583"
       d="m 94.376065,109.99296 h 8.255855 l -0.0666,2.26371 10.02867,0.0387 -0.0236,0.75326 -0.0941,0.91804 -0.2354,0.72972 -0.4237,1.05927 -0.51787,0.96512 -0.65911,0.91804 -0.4708,0.56495 -0.77679,0.6591 -0.84743,0.61203 -0.61204,0.40017 -0.6591,0.40017 -0.70617,0.23539 -0.70617,0.21186 -0.84744,0.0941 -2.37746,0.0942 -0.005,0.0345 0.0666,4.09465 -8.389025,-0.0333 z"
       id="path2030" /><path
       style="fill:none;stroke:#000000;stroke-width:0.264583"
       d="m 93.997848,95.135127 v 7.720933 z"
       id="path2032" /><path
       style="fill:none;stroke:#000000;stroke-width:0.264583"
       d="m 93.809538,99.089753 61.202522,0.56495 z"
       id="path2034" /><path
       style="fill:none;stroke:#000000;stroke-width:0.264583"
       d="m 154.82373,95.700073 v 6.967677 z"
       id="path2036" /><path
       style="fill:none;stroke:#000000;stroke-width:0.264583"
       d="m 159.90826,109.07047 h 7.3443 z"
       id="path2038" /><path
       style="fill:none;stroke:#000000;stroke-width:0.264583"
       d="m 163.67458,108.88216 0.1883,52.91666 z"
       id="path2040" /><path
       style="fill:none;stroke:#000000;stroke-width:0.264583"
       d="m 159.90826,161.23388 h 7.53263 z"
       id="path2042" /><text
       xml:space="preserve"
       style="font-size:3.175px;fill:none;stroke:#000000;stroke-width:0.264583"
       x="118.13922"
       y="97.521088"
       id="text2046"><tspan
         id="tspan2044"
         style="stroke-width:0.264583"
         x="118.13922"
         y="97.521088">13 '- 11&quot;</tspan></text><text
       xml:space="preserve"
       style="font-size:3.175px;fill:none;stroke:#000000;stroke-width:0.264583"
       x="129.37878"
       y="-166.70822"
       id="text2050"
       transform="rotate(90)"><tspan
         id="tspan2048"
         style="stroke-width:0.264583"
         x="129.37878"
         y="-166.70822">14'-2&quot;</tspan></text><path
       style="fill:none;stroke:#000000;stroke-width:0.264583"
       d="m 102.66521,125.00666 -0.13549,7.1906 h 1.4671 l 0.13316,-11.35183 -1.53132,0.0666 z"
       id="path2052" /></g></svg>
