<svg xmlns="http://www.w3.org/2000/svg" viewBox="0 0 452.16 524.97"><defs><style>.cls-1,.cls-4{fill:none;stroke:#000;stroke-miterlimit:10;}.cls-1{stroke-width:4px;}.cls-2{font-size:43.6px;font-family:MyriadPro-Regular, Myriad Pro;}.cls-3{letter-spacing:-0.09em;}.cls-4{stroke-width:3px;}</style></defs><g id="Layer_2" data-name="Layer 2"><g id="Layer_1-2" data-name="Layer 1"><path class="cls-1" d="M368,450.16v-366H185v122H2v30.5H63c-.14,4.81-1.73,39.24-30.5,61A75.49,75.49,0,0,1,2,311.32V450.16Z"/><text class="cls-2" transform="translate(164.06 36.49)">17<tspan class="cls-3" x="44.73" y="0">’</tspan></text><line x1="371" y1="54.66" x2="2" y2="54.66"/><line class="cls-4" x1="369.5" y1="54.66" x2="3.5" y2="54.66"/><rect x="368" y="44.91" width="3" height="19.5"/><rect x="2" y="44.91" width="3" height="19.5"/><text class="cls-2" transform="translate(415.67 216.22) rotate(90)">18’4<tspan class="cls-3" x="76.12" y="0">”</tspan></text><line x1="397.5" y1="450.16" x2="397.5" y2="81.16"/><line class="cls-4" x1="397.5" y1="448.66" x2="397.5" y2="82.66"/><rect x="387.75" y="447.16" width="19.5" height="3"/><rect x="387.75" y="81.16" width="19.5" height="3"/><text class="cls-2" transform="translate(245.44 514.07)">8’2<tspan class="cls-3" x="53.76" y="0">”</tspan></text><line x1="182" y1="468.66" x2="362" y2="468.66"/><line class="cls-4" x1="183.5" y1="468.66" x2="360.5" y2="468.66"/><rect x="182" y="458.91" width="3" height="19.5"/><rect x="359" y="458.91" width="3" height="19.5"/></g></g></svg>