<svg xmlns="http://www.w3.org/2000/svg" viewBox="0 0 408.47 458.16"><defs><style>.cls-1,.cls-4{fill:none;stroke:#000;stroke-miterlimit:10;}.cls-1{stroke-width:5px;}.cls-2{font-size:43.6px;font-family:MyriadPro-Regular, Myriad Pro;}.cls-3{letter-spacing:-0.09em;}.cls-4{stroke-width:3px;}.cls-5{letter-spacing:-0.09em;}</style></defs><g id="Layer_2" data-name="Layer 2"><g id="Layer_1-2" data-name="Layer 1"><path class="cls-1" d="M183.66,59.48V3h31.88V211.38H334.62V390H66.7V3h46.13a79.7,79.7,0,0,0,13,25.09C146.7,55.09,177.68,58.86,183.66,59.48Z"/><text class="cls-2" transform="translate(148.17 447.26)">12’2<tspan class="cls-3" x="76.12" y="0">”</tspan></text><text class="cls-2" transform="translate(371.98 276.38) rotate(90)">8’2<tspan class="cls-3" x="53.76" y="0">”</tspan></text><line x1="352.16" y1="390" x2="352.16" y2="210"/><line class="cls-4" x1="352.16" y1="388.5" x2="352.16" y2="211.5"/><rect x="342.41" y="387" width="19.5" height="3"/><rect x="342.41" y="210" width="19.5" height="3"/><line x1="64.16" y1="408.5" x2="334.16" y2="408.5"/><line class="cls-4" x1="65.66" y1="408.5" x2="332.66" y2="408.5"/><rect x="64.16" y="398.75" width="3" height="19.5"/><rect x="331.16" y="398.75" width="3" height="19.5"/><path class="cls-4" d="M183.66,0V59.48c-6-.62-37-4.39-57.82-31.39A79.7,79.7,0,0,1,112.83,3"/><text class="cls-2" transform="translate(36.49 235.94) rotate(-90) scale(0.96 1)">17<tspan class="cls-5" x="44.73" y="0">’</tspan></text><line x1="45.66" y1="3" x2="45.66" y2="390"/><line class="cls-4" x1="45.66" y1="4.5" x2="45.66" y2="388.5"/><rect x="35.91" y="3" width="19.5" height="3"/><rect x="35.91" y="387" width="19.5" height="3"/></g></g></svg>