<svg xmlns="http://www.w3.org/2000/svg" viewBox="0 0 136.33 194.07"><defs><style>.cls-1,.cls-4{fill:none;stroke:#000;stroke-miterlimit:10;}.cls-1{stroke-width:4px;}.cls-2{font-size:21.14px;font-family:MyriadPro-Regular, Myriad Pro;}.cls-3{letter-spacing:-0.09em;}.cls-4{stroke-width:3px;}</style></defs><g id="Layer_2" data-name="Layer 2"><g id="Layer_1-2" data-name="Layer 1"><polyline class="cls-1" points="71.33 116.53 44.33 116.53 44.33 26.53 62.33 26.53 62.33 8.53 125.33 8.53 125.33 26.53 134.33 26.53 134.33 116.53 107.33 116.53 116.33 116.53 116.33 143.53 44.33 143.53 44.33 116.53"/><text class="cls-2" transform="translate(71.86 188.78) scale(0.96 1)">12<tspan class="cls-3" x="21.69" y="0">’</tspan></text><line x1="134.33" y1="161.03" x2="44.33" y2="161.03"/><line class="cls-4" x1="132.83" y1="161.03" x2="45.83" y2="161.03"/><rect x="131.33" y="151.28" width="3" height="19.5"/><rect x="44.33" y="151.28" width="3" height="19.5"/><text class="cls-2" transform="translate(17.7 81) rotate(-90) scale(0.96 1)">16<tspan class="cls-3" x="21.69" y="0">’</tspan></text><line x1="27.04" y1="143.53" x2="27.04"/><line class="cls-4" x1="27.04" y1="142.03" x2="27.04" y2="1.5"/><rect x="17.29" y="140.53" width="19.5" height="3"/><rect x="17.29" width="19.5" height="3"/></g></g></svg>