<svg xmlns="http://www.w3.org/2000/svg" viewBox="0 0 606.99 509"><defs><style>.cls-1{fill:none;stroke:#000;stroke-miterlimit:10;stroke-width:4px;}.cls-2{font-size:47.83px;font-family:MyriadPro-Regular, Myriad Pro;}.cls-3{letter-spacing:-0.09em;}</style></defs><g id="Layer_2" data-name="Layer 2"><g id="Layer_1-2" data-name="Layer 1"><path class="cls-1" d="M598,254V389H409V362H373v27H229V335H103V2H472V29H418a64.24,64.24,0,0,0,18,36,64.31,64.31,0,0,0,36,18v72H436a63.44,63.44,0,0,0,36,48.59V254Z"/><line class="cls-1" x1="543.99" y1="254" x2="543.99" y2="245"/><line class="cls-1" x1="543.99" y1="137" x2="543.99" y2="119"/><path class="cls-1" d="M580,389V335a63.64,63.64,0,0,0-54,54"/><path class="cls-1" d="M544,137V245H490V209a62.64,62.64,0,0,1-18-5.41A63.44,63.44,0,0,1,436,155h54V137Z"/><path class="cls-1" d="M544,29v90H490V101H472V83a64.31,64.31,0,0,1-36-18,64.24,64.24,0,0,1-18-36h72V2h27V29Z"/><line class="cls-1" x1="604.99" y1="452" x2="104.99" y2="452"/><rect x="602.99" y="439" width="4" height="26"/><rect x="102.99" y="439" width="4" height="26"/><text class="cls-2" transform="translate(345.9 497.04) scale(0.91 1)">17<tspan class="cls-3" x="49.07" y="0">’</tspan></text><line class="cls-1" x1="66.99" y1="4" x2="66.99" y2="405"/><rect x="53.99" y="2" width="26" height="4"/><rect x="53.99" y="403" width="26" height="4"/><text class="cls-2" transform="translate(40.04 263.09) rotate(-90) scale(0.91 1)">14’2<tspan class="cls-3" x="83.51" y="0">”</tspan></text></g></g></svg>