<?xml version="1.0" encoding="UTF-8" standalone="no"?>
<!-- Created with Inkscape (http://www.inkscape.org/) -->

<svg
   version="1.1"
   id="svg48"
   width="500"
   height="500.33301"
   viewBox="0 0 500 500.33301"
   sodipodi:docname="Screenshot 2022-11-12 at 10.34.41 AM.png"
   inkscape:export-filename="Baker Double.svg"
   inkscape:export-xdpi="96"
   inkscape:export-ydpi="96"
   xml:space="preserve"
   xmlns:inkscape="http://www.inkscape.org/namespaces/inkscape"
   xmlns:sodipodi="http://sodipodi.sourceforge.net/DTD/sodipodi-0.dtd"
   xmlns="http://www.w3.org/2000/svg"
   xmlns:svg="http://www.w3.org/2000/svg"><defs
     id="defs52" /><sodipodi:namedview
     id="namedview50"
     pagecolor="#ffffff"
     bordercolor="#000000"
     borderopacity="0.25"
     inkscape:showpageshadow="2"
     inkscape:pageopacity="0.0"
     inkscape:pagecheckerboard="0"
     inkscape:deskcolor="#d1d1d1"
     showgrid="false" /><g
     inkscape:groupmode="layer"
     inkscape:label="Image"
     id="g54"><path
       style="fill:none;stroke:#000000"
       d="m 195.81849,281.95984 h -19.64324 v -7.43257 h 19.11234 l -0.5309,-5.30897 -1.5927,-4.24718 -3.1854,-3.71628 -3.7163,-3.18539 -3.1854,-1.06179 -3.7163,-1.0618 -3.71624,-0.53089 h -1.59269 l 0.0555,-6.90167 h -17.04425 v 32.91564 h 16.45782 v -6.90167 l 3.18539,0.5309 v 6.37077 z"
       id="path14472-2"
       sodipodi:nodetypes="cccccccccccccccccccc" /><path
       style="fill:none;stroke:#000000"
       d="m 195.81849,281.95984 1.5927,-6.37077 1.5926,-3.71628 2.1236,-4.24718 2.1236,-2.65449 4.7781,-3.71628 3.7163,-1.59269 3.7163,-1.0618 3.7162,-0.5309 v 23.89039 h 19.1124 v -7.43257 h 2.6544 v 6.37077 h 9.5562 v -5.83987 h 7.4326 l -0.5309,-26.54487 h -16.4579 v 7.43256 h -3.1853 -2.6545 l -2.6545,0.5309 -1.5927,0.5309 -3.1854,1.59269 -2.9477,2.36127 -2.3613,2.9477 -1.5927,2.12359 -1.0618,2.65449 v 4.77808 h 18.0506 l 0.5309,8.49436 h -19.1124 v -23.89039 l -3.7162,0.5309 -5.309,2.12359 -4.2472,1.59269 -3.7163,3.71628 -3.1854,3.71629 -1.5926,3.18538 -1.5927,4.24718 z"
       id="path14474-3"
       sodipodi:nodetypes="cccccccccccccccccccccccccccccccccccccccccc" /><path
       style="fill:none;stroke:#000000"
       d="m 176.17525,254.88407 v -9.02526 h -19.11231 l -0.53089,-97.15422 h 100.33964 l 1.0618,97.68512 h -19.6432 v 8.49436"
       id="path14476-5" /><path
       style="fill:none;stroke:#000000;stroke-width:0.990466"
       d="m 256.64959,125.81728 v 15.94821 -8.15131 l -100.47944,0.3544 v 8.15131 -14.88499"
       id="path1021-3-8-8-9-4-9" /><path
       style="fill:none;stroke:#000000;stroke-width:1.10933"
       d="m 280.68409,274.89113 -15.9481,-2e-5 8.1512,9e-5 -0.3543,-126.04535 -8.1513,-4e-5 14.8848,2e-5"
       id="path1021-3-8-8-9-4-0-0" /><text
       xml:space="preserve"
       style="fill:none;stroke:#000000"
       x="196.07542"
       y="127.22647"
       id="text1206-7-26-0-1"><tspan
         sodipodi:role="line"
         id="tspan1204-5-40-4-3"
         x="196.07542"
         y="127.22647">12'</tspan></text><text
       xml:space="preserve"
       style="fill:none;stroke:#000000"
       x="193.83493"
       y="-281.95499"
       id="text1206-7-26-9-6"
       transform="rotate(90)"
       inkscape:transform-center-x="-4.6773989"><tspan
         sodipodi:role="line"
         id="tspan1204-5-40-9-9"
         x="193.83493"
         y="-281.95499">17'-8''</tspan></text><path
       style="fill:none;stroke:#000000"
       d="m 191.61659,148.93418 v 7.30466 h 29.6483 v -7.73435 z"
       id="path14566-0" /></g></svg>
